HIERARCHY
ROOT Hips
{
  OFFSET 0.000000 0.000000 0.000000
  CHANNELS 6 Xposition Yposition Zposition Xrotation Yrotation Zrotation
  JOINT Spine
  {
    OFFSET 0.863387 -21.960049 -9.813075
    CHANNELS 3 Xrotation Yrotation Zrotation
    JOINT Chest
    {
      OFFSET 0.863387 -21.960049 -9.813075
      CHANNELS 3 Xrotation Yrotation Zrotation
      JOINT Neck
      {
        OFFSET -5.142624 -12.687886 -11.636678
        CHANNELS 3 Xrotation Yrotation Zrotation
        JOINT Head
        {
          OFFSET -4.045376 6.611234 -9.455304
          CHANNELS 3 Xrotation Yrotation Zrotation
          End Site
          {
            OFFSET 0.0 5.0 2.0
          }
        }
      }
      JOINT LeftShoulder
      {
        OFFSET 15.577370 0.287953 -4.298819
        CHANNELS 3 Xrotation Yrotation Zrotation
        JOINT LeftArm
        {
          OFFSET 11.816022 21.671087 -5.251987
          CHANNELS 3 Xrotation Yrotation Zrotation
          JOINT LeftForeArm
          {
            OFFSET -14.813976 11.614788 -13.696364
            CHANNELS 3 Xrotation Yrotation Zrotation
            JOINT LeftHand
            {
              OFFSET -5.687378 1.840689 -2.898664
              CHANNELS 3 Xrotation Yrotation Zrotation
              End Site
              {
                OFFSET -3.0 0.0 2.0
              }
            }
          }
        }
      }
      JOINT RightShoulder
      {
        OFFSET -15.577370 -0.287953 4.298819
        CHANNELS 3 Xrotation Yrotation Zrotation
        JOINT RightArm
        {
          OFFSET -3.449842 23.133916 -3.360027
          CHANNELS 3 Xrotation Yrotation Zrotation
          JOINT RightForeArm
          {
            OFFSET -3.909147 7.979488 -23.481274
            CHANNELS 3 Xrotation Yrotation Zrotation
            JOINT RightHand
            {
              OFFSET 5.000000 0.000000 0.000000
              CHANNELS 3 Xrotation Yrotation Zrotation
              End Site
              {
                OFFSET 3.0 0.0 2.0
              }
            }
          }
        }
      }
    }
  }
  JOINT LeftUpLeg
  {
    OFFSET 11.198483 0.712783 -2.441644
    CHANNELS 3 Xrotation Yrotation Zrotation
    JOINT LeftLeg
    {
      OFFSET -1.544884 42.850295 2.000000
      CHANNELS 3 Xrotation Yrotation Zrotation
      JOINT LeftFoot
      {
        OFFSET 4.902850 31.674799 17.890372
        CHANNELS 3 Xrotation Yrotation Zrotation
        JOINT LeftToeBase
        {
          OFFSET 1.366001 12.060863 -11.667534
          CHANNELS 3 Xrotation Yrotation Zrotation
          End Site
          {
            OFFSET 0.0 -1.0 3.0
          }
        }
      }
    }
  }
  JOINT RightUpLeg
  {
    OFFSET -11.198483 -0.712783 2.441644
    CHANNELS 3 Xrotation Yrotation Zrotation
    JOINT RightLeg
    {
      OFFSET -4.278909 37.814860 2.000000
      CHANNELS 3 Xrotation Yrotation Zrotation
      JOINT RightFoot
      {
        OFFSET 5.403972 33.123335 19.167209
        CHANNELS 3 Xrotation Yrotation Zrotation
        JOINT RightToeBase
        {
          OFFSET -3.767241 13.109148 -8.921333
          CHANNELS 3 Xrotation Yrotation Zrotation
          End Site
          {
            OFFSET 0.0 -1.0 3.0
          }
        }
      }
    }
  }
}
MOTION
Frames: 18
Frame Time: 0.066667
0.000000 0.000000 0.000000 0.000000 0.000000 0.000000 0.000000 0.000000 0.000000 0.000000 0.000000 0.000000 0.000000 0.000000 0.000000 0.000000 0.000000 0.000000 0.000000 0.000000 0.000000 0.000000 0.000000 0.000000 0.000000 0.000000 0.000000 0.000000 0.000000 0.000000 0.000000 0.000000 0.000000 0.000000 0.000000 0.000000 49.891086 67.245607 69.945921 0.000000 0.000000 0.000000 -2.292189 -0.082618 0.001653 0.000000 0.000000 0.000000 87.721305 -6.456661 -6.205351 0.000000 0.000000 0.000000 -5.496237 -0.620945 0.029806 0.000000 0.000000 0.000000 65.529151 14.657943 9.463793 0.000000 0.000000 0.000000
0.000000 0.000000 0.000000 0.191712 -2.725528 0.088626 -7.827039 -0.396482 0.265373 0.172427 -8.858195 0.023519 -4.293288 -0.094589 1.729055 0.000000 0.000000 0.000000 -9.062793 5.587557 1.530093 -25.302697 -9.247028 17.121444 -17.128694 -6.682325 24.902121 0.000000 0.000000 0.000000 -9.279622 -0.557820 3.677782 -11.819145 -2.750026 1.274670 14.219410 79.304691 17.116534 0.000000 0.000000 0.000000 -2.597406 -0.068565 -1.043355 -6.606973 0.343292 1.321073 88.931273 -6.342161 -17.596738 0.000000 0.000000 0.000000 -4.632059 -0.530515 0.606607 -5.299281 -0.801121 3.162625 69.323749 14.712077 20.913612 0.000000 0.000000 0.000000
0.000000 0.000000 0.000000 0.332100 -4.551371 0.221080 -7.296006 -0.533409 0.682560 0.130688 -4.890524 0.165880 2.657422 6.287636 3.549500 0.000000 0.000000 0.000000 -17.174650 15.553444 12.015481 -60.414034 0.538830 45.938325 -35.177641 12.047395 66.795765 0.000000 0.000000 0.000000 -11.403055 1.107216 11.443048 -46.133974 3.641357 6.846813 -34.512457 37.145740 -85.504207 0.000000 0.000000 0.000000 -3.973999 -0.126334 -1.406372 -4.419419 -0.924121 3.086954 84.624189 -6.813672 -19.953923 0.000000 0.000000 0.000000 -9.349041 -0.930197 4.226639 0.775332 -1.084699 1.625162 65.396095 14.651742 17.087220 0.000000 0.000000 0.000000
0.000000 0.000000 0.000000 0.398072 -5.361560 0.307021 -7.788630 -0.615456 0.865046 0.143414 -2.085540 0.404038 2.839700 8.466057 5.175611 0.000000 0.000000 0.000000 -25.659702 19.830353 8.290629 -62.424182 -0.623586 46.570985 -33.590840 11.579249 64.469574 0.000000 0.000000 0.000000 0.923592 5.116805 36.890604 -61.180856 20.217307 5.241226 -26.279574 25.561856 -91.641775 0.000000 0.000000 0.000000 -5.131331 -0.179462 -2.922649 0.225176 -2.423986 4.185116 77.951297 -7.511477 -19.103586 0.000000 0.000000 0.000000 -17.345760 -1.233749 7.268439 5.567164 -0.942379 0.010984 60.710996 14.288477 13.551971 0.000000 0.000000 0.000000
0.000000 0.000000 0.000000 0.431442 -5.849300 0.323965 -7.657405 -0.598716 0.829827 0.287712 -1.557157 0.982890 1.931414 8.842740 5.772488 0.000000 0.000000 0.000000 -28.384627 20.346848 5.899548 -61.632723 -2.289347 45.476916 -36.720591 9.879949 66.096225 0.000000 0.000000 0.000000 14.622830 2.844744 49.915621 -63.963897 38.803201 0.369505 -26.765944 21.969389 -101.582462 0.000000 0.000000 0.000000 -5.608426 -0.210427 -3.598761 2.620177 -3.166680 4.594001 76.830790 -7.546710 -18.200363 0.000000 0.000000 0.000000 -16.535966 -1.203493 7.163004 5.734190 -1.013729 0.076293 61.017746 14.235098 11.551870 0.000000 0.000000 0.000000
0.000000 0.000000 0.000000 0.431347 -5.778841 0.349431 -7.661617 -0.592627 0.812974 0.535598 -0.970454 1.930972 2.229031 9.811142 6.431637 0.000000 0.000000 0.000000 -28.142653 19.705213 5.155812 -59.749003 -2.279083 44.412890 -35.756222 9.537595 64.661265 0.000000 0.000000 0.000000 15.330246 2.628910 49.350952 -57.697218 37.110988 2.113459 -34.458174 27.071826 -104.354499 0.000000 0.000000 0.000000 -5.011616 -0.170081 -3.627378 2.575919 -2.622736 3.707148 78.865522 -7.532356 -20.644574 0.000000 0.000000 0.000000 -13.665126 -1.146667 5.866927 3.135675 -1.436768 1.483908 61.236851 14.369273 14.658666 0.000000 0.000000 0.000000
0.000000 0.000000 0.000000 0.439249 -5.726930 0.415077 -7.414596 -0.560029 0.744550 0.489469 -1.566950 1.749053 2.216649 8.769612 5.621446 0.000000 0.000000 0.000000 -27.243864 18.870694 4.836189 -54.962293 -8.680319 38.887704 -35.662158 6.006951 60.910612 0.000000 0.000000 0.000000 11.367086 3.528601 43.497374 -50.606504 28.494908 4.603056 -38.390108 31.858173 -101.309963 0.000000 0.000000 0.000000 -4.682161 -0.147760 -3.629304 -0.243582 -1.089761 2.000656 81.818676 -7.283566 -22.767222 0.000000 0.000000 0.000000 -1.258627 -0.235357 2.233044 -2.479862 -2.679951 5.556392 64.742499 14.673364 24.924596 0.000000 0.000000 0.000000
0.000000 0.000000 0.000000 0.430098 -5.621135 0.399664 -7.348446 -0.423452 0.382469 0.363470 -2.325039 1.245776 1.091762 6.794659 4.496071 0.000000 0.000000 0.000000 -25.532200 17.963863 5.331395 -49.878512 -10.684616 34.694630 -32.075584 1.392469 52.247739 0.000000 0.000000 0.000000 10.821091 3.383482 37.856090 -44.056032 19.745706 5.792663 -46.991528 40.682421 -99.085504 0.000000 0.000000 0.000000 -4.132677 -0.105545 -4.101850 -1.078037 0.137326 0.051899 82.389871 -7.206813 -22.837837 0.000000 0.000000 0.000000 5.406098 0.641517 -0.275425 -2.610264 -3.589057 7.233801 64.989313 14.669703 25.182739 0.000000 0.000000 0.000000
0.000000 0.000000 0.000000 0.421259 -5.564611 0.368383 -7.216411 -0.356980 0.216175 0.359784 -2.245818 1.234097 0.745209 5.667642 3.780059 0.000000 0.000000 0.000000 -22.158616 18.915142 11.208508 -47.326746 -3.857344 36.196245 -29.028771 5.524031 52.375876 0.000000 0.000000 0.000000 9.730676 3.318212 33.188783 -41.009827 17.714620 5.919951 -50.257926 45.684261 -96.149726 0.000000 0.000000 0.000000 -4.821745 -0.151700 -4.847524 -4.654824 1.316461 -1.197978 84.881286 -6.844825 -22.384599 0.000000 0.000000 0.000000 5.561807 0.878608 -2.408805 -3.806187 -3.356126 7.337698 64.753763 14.697992 28.715375 0.000000 0.000000 0.000000
0.000000 0.000000 0.000000 0.382992 -5.571099 0.142173 -8.232186 -0.179988 -0.369336 0.302287 -0.251558 1.086670 0.050033 4.306295 3.042053 0.000000 0.000000 0.000000 -18.082603 19.618627 18.214284 -45.699186 2.201122 38.286870 -26.428327 8.496008 52.097900 0.000000 0.000000 0.000000 4.499605 3.236686 24.999709 -38.855314 14.169115 5.949271 -63.245386 49.711878 -106.089181 0.000000 0.000000 0.000000 -4.970467 -0.157746 -6.587635 -0.980230 -0.009083 0.289170 81.142671 -7.232191 -20.245573 0.000000 0.000000 0.000000 3.235509 0.566739 -2.444045 -2.076358 -2.996740 5.957089 64.504532 14.711056 28.737467 0.000000 0.000000 0.000000
0.000000 0.000000 0.000000 0.338232 -5.544795 -0.109433 -8.410001 0.207066 -1.459756 0.228942 0.209738 0.838608 0.159148 4.293430 2.991499 0.000000 0.000000 0.000000 -15.866294 19.210601 20.927760 -45.601939 3.123138 38.725418 -25.887156 7.357021 50.133916 0.000000 0.000000 0.000000 -4.568836 2.400516 16.739675 -35.790041 -0.054673 5.545271 -41.410033 52.742304 -74.642078 0.000000 0.000000 0.000000 -5.442441 -0.203182 -7.889951 0.411127 -0.532716 0.822311 79.815963 -7.276447 -18.624992 0.000000 0.000000 0.000000 2.438456 0.437503 -2.158468 -0.874855 -2.664679 4.902298 63.443283 14.789777 30.079892 0.000000 0.000000 0.000000
0.000000 0.000000 0.000000 0.286991 -5.492718 -0.387797 -8.206130 0.253935 -1.559718 0.143890 -0.072233 0.517699 0.311980 4.329120 2.959561 0.000000 0.000000 0.000000 -14.891640 18.783459 21.728614 -46.717080 3.526398 39.603078 -27.631779 7.523815 52.639594 0.000000 0.000000 0.000000 -9.371531 1.295418 11.844326 -36.118596 -8.634750 5.427205 -25.726527 45.113095 -57.600870 0.000000 0.000000 0.000000 -5.463061 -0.206244 -8.696209 1.089560 -0.397169 0.393804 79.061495 -7.362293 -18.722394 0.000000 0.000000 0.000000 4.286374 0.738504 -2.765290 1.695287 -2.393662 3.512109 61.795229 14.867741 29.251382 0.000000 0.000000 0.000000
0.000000 0.000000 0.000000 0.274871 -5.456683 -0.443905 -8.873768 -0.081346 -0.718811 0.147754 -0.459874 0.511488 -0.257564 4.811559 3.522327 0.000000 0.000000 0.000000 -13.200407 17.740518 22.612122 -46.984557 5.286997 40.708453 -27.312178 9.498561 54.384873 0.000000 0.000000 0.000000 -11.043528 0.318903 8.128818 -37.749515 -14.898247 5.753818 -17.631242 38.825805 -47.506487 0.000000 0.000000 0.000000 -6.020732 -0.276209 -9.908869 -1.212977 0.154917 0.057609 81.038924 -7.097987 -17.746357 0.000000 0.000000 0.000000 5.630416 1.039312 -3.869123 2.181556 -2.503367 3.525148 61.829632 14.852980 28.841757 0.000000 0.000000 0.000000
0.000000 0.000000 0.000000 0.265874 -5.338011 -0.448634 -8.569859 -0.464729 0.383905 0.361811 -0.985146 1.282137 -1.642686 3.479574 3.095103 0.000000 0.000000 0.000000 -12.871650 18.046446 23.766800 -47.598507 5.253119 41.039921 -27.462656 9.069993 54.102838 0.000000 0.000000 0.000000 -16.414288 -0.296362 7.491284 -36.616941 -18.845977 5.383636 -13.175368 37.240500 -37.839255 0.000000 0.000000 0.000000 -6.256595 -0.300151 -9.284313 -4.603814 1.158400 -0.901892 84.330359 -6.789828 -18.012543 0.000000 0.000000 0.000000 6.489984 1.217055 -4.315199 0.116356 -2.433125 4.136265 63.504366 14.774317 29.403644 0.000000 0.000000 0.000000
0.000000 0.000000 0.000000 0.245852 -4.481735 -0.233001 -6.664786 -1.041199 2.075586 0.878341 -2.326451 3.249085 -3.670249 2.643156 3.292390 0.000000 0.000000 0.000000 -13.481750 20.084064 26.483947 -48.782882 6.900162 42.588544 -27.453979 10.707173 55.951592 0.000000 0.000000 0.000000 -19.098649 -0.197279 8.533955 -35.067303 -19.832696 4.879666 -11.285397 36.659472 -33.212771 0.000000 0.000000 0.000000 -7.294168 -0.413087 -8.763352 -5.157701 1.259877 -0.951765 85.484312 -6.667602 -17.561081 0.000000 0.000000 0.000000 8.121115 1.472415 -4.358207 0.829445 -2.701324 4.330616 62.682384 14.830514 29.775056 0.000000 0.000000 0.000000
0.000000 0.000000 0.000000 0.270647 -3.928296 0.100717 -6.595471 -1.673979 3.748943 1.067578 -2.271361 3.982372 -3.382264 4.801400 4.649657 0.000000 0.000000 0.000000 -13.547986 20.324237 26.800833 -46.407781 8.449838 42.147723 -28.337336 10.437668 56.782010 0.000000 0.000000 0.000000 -16.856565 0.549738 10.459236 -32.863737 -18.594368 4.241073 -9.717516 40.891311 -25.689483 0.000000 0.000000 0.000000 -7.391223 -0.412028 -8.100655 -3.929800 1.261013 -1.280157 85.324876 -6.666709 -16.800763 0.000000 0.000000 0.000000 8.270667 1.488061 -4.300578 2.378073 -2.946820 4.179690 62.454748 14.844695 29.789697 0.000000 0.000000 0.000000
0.000000 0.000000 0.000000 0.364044 -3.897802 0.615616 -7.041918 -2.259218 5.312527 1.202838 -2.020040 4.490138 -2.785498 6.655254 5.729034 0.000000 0.000000 0.000000 -13.815426 20.237090 26.184089 -45.780189 8.823818 42.019375 -27.523498 10.545098 55.854430 0.000000 0.000000 0.000000 -17.318292 1.164256 12.586745 -30.709403 -17.519339 3.651022 -7.061455 44.098123 -17.323628 0.000000 0.000000 0.000000 -7.185547 -0.380661 -7.527609 -2.802474 1.248060 -1.543495 86.815652 -6.526008 -15.531461 0.000000 0.000000 0.000000 6.898185 1.206934 -3.685838 2.712712 -2.822762 3.860933 62.912110 14.799835 29.019125 0.000000 0.000000 0.000000
0.000000 0.000000 0.000000 0.516492 -3.916232 1.434243 -9.439155 -2.355459 5.692114 1.578652 0.154006 5.706005 -1.174556 9.667348 7.383061 0.000000 0.000000 0.000000 -12.332482 19.211940 26.909562 -45.594449 7.435105 41.118757 -26.177952 9.705297 53.114006 0.000000 0.000000 0.000000 -2.130090 1.525699 11.327697 -17.553714 -11.183015 0.809465 13.958411 53.606364 27.241559 0.000000 0.000000 0.000000 -7.148952 -0.374897 -7.400494 1.164441 0.633366 -1.410754 84.235055 -6.697653 -14.676607 0.000000 0.000000 0.000000 -5.997222 -0.676801 3.362544 5.770323 -1.076753 0.163616 59.110485 14.694690 23.280301 0.000000 0.000000 0.000000
